<?xml version="1.0" encoding="UTF-8" standalone="no"?>
<!-- Created with Inkscape (http://www.inkscape.org/) -->

<svg
   xmlns:dc="http://purl.org/dc/elements/1.1/"
   xmlns:cc="http://creativecommons.org/ns#"
   xmlns:rdf="http://www.w3.org/1999/02/22-rdf-syntax-ns#"
   xmlns:svg="http://www.w3.org/2000/svg"
   xmlns="http://www.w3.org/2000/svg"
   xmlns:sodipodi="http://sodipodi.sourceforge.net/DTD/sodipodi-0.dtd"
   xmlns:inkscape="http://www.inkscape.org/namespaces/inkscape"
   width="80"
   height="40"
   id="svg12082"
   version="1.1"
   inkscape:version="0.48.2 r9819"
   sodipodi:docname="unhr-icons.svg">
  <defs
     id="defs12084">
    <clipPath
       clipPathUnits="userSpaceOnUse"
       id="clipPath13207">
      <rect
         style="color:#000000;fill:#ffffff;fill-opacity:1;stroke:none;stroke-width:4;marker:none;visibility:visible;display:inline;overflow:visible;enable-background:accumulate"
         id="rect13209"
         width="8"
         height="8.9999828"
         x="12"
         y="1036.3622" />
    </clipPath>
    <clipPath
       clipPathUnits="userSpaceOnUse"
       id="clipPath13398">
      <path
         sodipodi:nodetypes="cczccc"
         inkscape:connector-curvature="0"
         id="path13400"
         d="m 150,982.3622 0,-15 c 0,0 10,-5 20,-5 10,0 20,5 20,5 l 0,15 z"
         style="opacity:0.25;fill:#000000;fill-opacity:1;stroke:none" />
    </clipPath>
  </defs>
  <sodipodi:namedview
     id="base"
     pagecolor="#ffffff"
     bordercolor="#666666"
     borderopacity="1.0"
     inkscape:pageopacity="0.0"
     inkscape:pageshadow="2"
     inkscape:zoom="2.8284271"
     inkscape:cx="32.538337"
     inkscape:cy="43.511604"
     inkscape:document-units="px"
     inkscape:current-layer="layer1"
     showgrid="false"
     inkscape:window-width="1280"
     inkscape:window-height="752"
     inkscape:window-x="0"
     inkscape:window-y="0"
     inkscape:window-maximized="1">
    <inkscape:grid
       type="xygrid"
       id="grid12115"
       empspacing="5"
       visible="true"
       enabled="true"
       snapvisiblegridlinesonly="true" />
  </sodipodi:namedview>
  <metadata
     id="metadata12087">
    <rdf:RDF>
      <cc:Work
         rdf:about="">
        <dc:format>image/svg+xml</dc:format>
        <dc:type
           rdf:resource="http://purl.org/dc/dcmitype/StillImage" />
        <dc:title></dc:title>
      </cc:Work>
    </rdf:RDF>
  </metadata>
  <g
     inkscape:label="Layer 1"
     inkscape:groupmode="layer"
     id="layer1"
     transform="translate(0,-1012.3622)">
    <rect
       style="color:#000000;fill:#00aad4;fill-opacity:1;fill-rule:nonzero;stroke:none;stroke-width:1;marker:none;visibility:visible;display:inline;overflow:visible;enable-background:accumulate"
       id="rect12109"
       width="40"
       height="40"
       x="0"
       y="912.36218"
       rx="5"
       ry="5"
       inkscape:export-filename="/Users/tristen/Desktop/g13354.png"
       inkscape:export-xdpi="90"
       inkscape:export-ydpi="90" />
    <path
       sodipodi:type="arc"
       style="opacity:0.25;color:#000000;fill:#000000;fill-opacity:1;fill-rule:nonzero;stroke:none;stroke-width:2;marker:none;visibility:visible;display:inline;overflow:visible;enable-background:accumulate"
       id="path13358"
       sodipodi:cx="19.887379"
       sodipodi:cy="20.908117"
       sodipodi:rx="14.937631"
       sodipodi:ry="15.026019"
       d="m 34.825009,20.908117 a 14.937631,15.026019 0 1 1 -29.875261,0 14.937631,15.026019 0 1 1 29.875261,0 z"
       transform="matrix(1.0041753,0,0,0.9982684,0.029585,911.4903)"
       inkscape:export-filename="/Users/tristen/Desktop/g13354.png"
       inkscape:export-xdpi="90"
       inkscape:export-ydpi="90" />
    <g
       id="g13354"
       transform="translate(3.050252,-99.93411)"
       inkscape:export-xdpi="90"
       inkscape:export-ydpi="90">
      <path
         transform="matrix(0.71286763,0,0,0.71286763,4.7058833,1015.7298)"
         d="m 21.454357,13.512119 c 0,2.324211 -1.884145,4.208355 -4.208355,4.208355 -2.32421,0 -4.208355,-1.884144 -4.208355,-4.208355 0,-2.32421 1.884145,-4.2083547 4.208355,-4.2083547 2.32421,0 4.208355,1.8841447 4.208355,4.2083547 z"
         sodipodi:ry="4.2083549"
         sodipodi:rx="4.2083549"
         sodipodi:cy="13.512119"
         sodipodi:cx="17.246002"
         id="path12113"
         style="color:#000000;fill:#ffffff;fill-opacity:1;fill-rule:nonzero;stroke:none;stroke-width:1;marker:none;visibility:visible;display:inline;overflow:visible;enable-background:accumulate"
         sodipodi:type="arc" />
      <path
         id="rect12117"
         transform="translate(0,1012.3622)"
         d="m 12,18 0,2 3.0625,0 0,7 -3.0625,0 0,2 3.0625,0 4.9375,0 2,0 0,-2 -2,0 0,-9 -3,0 -1.9375,0 L 12,18 z"
         style="color:#000000;fill:#ffffff;fill-opacity:1;fill-rule:nonzero;stroke:none;stroke-width:1;marker:none;visibility:visible;display:inline;overflow:visible;enable-background:accumulate"
         inkscape:connector-curvature="0" />
    </g>
    <rect
       style="color:#000000;fill:#00aad4;fill-opacity:1;fill-rule:nonzero;stroke:none;stroke-width:1;marker:none;visibility:visible;display:inline;overflow:visible;enable-background:accumulate"
       id="rect13380"
       width="40"
       height="40"
       x="0"
       y="957.36218"
       rx="5"
       ry="5"
       inkscape:export-filename="/Users/tristen/Desktop/g13354.png"
       inkscape:export-xdpi="90"
       inkscape:export-ydpi="90" />
    <rect
       inkscape:export-ydpi="90"
       inkscape:export-xdpi="90"
       inkscape:export-filename="/Users/tristen/Desktop/g13354.png"
       ry="5"
       rx="5"
       y="942.36218"
       x="150"
       height="40"
       width="40"
       id="rect13394"
       style="opacity:0.2;color:#000000;fill:#000000;fill-opacity:1;fill-rule:nonzero;stroke:none;stroke-width:1;marker:none;visibility:visible;display:inline;overflow:visible;enable-background:accumulate"
       clip-path="url(#clipPath13398)"
       transform="translate(-150,15)" />
    <path
       sodipodi:nodetypes="cccccc"
       inkscape:connector-curvature="0"
       id="path13402"
       d="m 7,970.3622 12.5,-7 12.5,7 0,20 -25,0 z"
       style="fill:#004051;fill-opacity:1;stroke:none" />
    <g
       transform="matrix(1.3333333,0,0,1.3333333,-74.333331,-305.7874)"
       id="g13404">
      <path
         transform="matrix(0.4752451,0,0,0.47524508,61.803922,951.94063)"
         d="m 21.454357,13.512119 c 0,2.324211 -1.884145,4.208355 -4.208355,4.208355 -2.32421,0 -4.208355,-1.884144 -4.208355,-4.208355 0,-2.32421 1.884145,-4.2083547 4.208355,-4.2083547 2.32421,0 4.208355,1.8841447 4.208355,4.2083547 z"
         sodipodi:ry="4.2083549"
         sodipodi:rx="4.2083549"
         sodipodi:cy="13.512119"
         sodipodi:cx="17.246002"
         id="path13406"
         style="color:#000000;fill:#ffffff;fill-opacity:1;fill-rule:nonzero;stroke:none;stroke-width:1;marker:none;visibility:visible;display:inline;overflow:visible;enable-background:accumulate"
         sodipodi:type="arc" />
      <path
         id="path13408"
         d="m 67,961.3622 0,1 2,0 0,5 -2,0 0,1 6.75,0 0,-1 -1.75,0 0,-6 z"
         style="color:#000000;fill:#ffffff;fill-opacity:1;fill-rule:nonzero;stroke:none;stroke-width:1;marker:none;visibility:visible;display:inline;overflow:visible;enable-background:accumulate"
         inkscape:connector-curvature="0"
         sodipodi:nodetypes="ccccccccccc" />
    </g>
    <rect
       style="color:#000000;fill:#ff2a2a;fill-opacity:1;fill-rule:nonzero;stroke:none;stroke-width:1;marker:none;visibility:visible;display:inline;overflow:visible;enable-background:accumulate"
       id="rect13422"
       width="40"
       height="40"
       x="45"
       y="912.36218"
       rx="5"
       ry="5"
       inkscape:export-filename="/Users/tristen/Desktop/g13354.png"
       inkscape:export-xdpi="90"
       inkscape:export-ydpi="90" />
    <path
       inkscape:export-ydpi="90"
       inkscape:export-xdpi="90"
       inkscape:export-filename="/Users/tristen/Desktop/g13354.png"
       transform="matrix(1.0041753,0,0,0.9982684,45.029585,911.4903)"
       d="m 34.825009,20.908117 a 14.937631,15.026019 0 1 1 -29.875261,0 14.937631,15.026019 0 1 1 29.875261,0 z"
       sodipodi:ry="15.026019"
       sodipodi:rx="14.937631"
       sodipodi:cy="20.908117"
       sodipodi:cx="19.887379"
       id="path13440"
       style="opacity:0.25;color:#000000;fill:#000000;fill-opacity:1;fill-rule:nonzero;stroke:none;stroke-width:2;marker:none;visibility:visible;display:inline;overflow:visible;enable-background:accumulate"
       sodipodi:type="arc" />
    <rect
       style="color:#000000;fill:#ffffff;fill-opacity:1;fill-rule:nonzero;stroke:none;stroke-width:2;marker:none;visibility:visible;display:inline;overflow:visible;enable-background:accumulate"
       id="rect13442"
       width="6"
       height="4.9999971"
       x="62"
       y="936.36218"
       rx="1"
       ry="1"
       inkscape:export-filename="/Users/tristen/Desktop/g13354.png"
       inkscape:export-xdpi="90"
       inkscape:export-ydpi="90" />
    <rect
       style="color:#000000;fill:#ffffff;fill-opacity:1;fill-rule:nonzero;stroke:none;stroke-width:2;marker:none;visibility:visible;display:inline;overflow:visible;enable-background:accumulate"
       id="rect13444"
       width="6"
       height="10"
       x="62"
       y="923.36218"
       rx="1"
       ry="1"
       inkscape:export-filename="/Users/tristen/Desktop/g13354.png"
       inkscape:export-xdpi="90"
       inkscape:export-ydpi="90" />
    <rect
       ry="5"
       rx="5"
       y="957.36218"
       x="45"
       height="40"
       width="40"
       id="rect13446"
       style="color:#000000;fill:#ff2a2a;fill-opacity:1;fill-rule:nonzero;stroke:none;stroke-width:1;marker:none;visibility:visible;display:inline;overflow:visible;enable-background:accumulate" />
    <path
       sodipodi:type="star"
       style="opacity:0.25;color:#000000;fill:#000000;fill-opacity:1;fill-rule:nonzero;stroke:none;stroke-width:2.00243497;marker:none;visibility:visible;display:inline;overflow:visible;enable-background:accumulate"
       id="path13454"
       sodipodi:sides="15"
       sodipodi:cx="101.75"
       sodipodi:cy="-117.5"
       sodipodi:r1="12.93213"
       sodipodi:r2="16.165163"
       sodipodi:arg1="0.68681765"
       sodipodi:arg2="0.89625716"
       inkscape:flatsided="false"
       inkscape:rounded="0"
       inkscape:randomized="0"
       d="m 111.75,-109.3 0.0957,4.42491 -4.29554,-1.06647 -1.7123,4.0813 -3.49039,-2.72142 -3.22428,3.032 -2.081733,-3.90582 -4.178751,1.45844 -0.31312,-4.41485 -4.410678,-0.36731 1.509634,-4.16053 -3.879959,-2.12953 3.071359,-3.18681 -2.678361,-3.52354 4.102018,-1.66206 L 89.25,-127.75 l 4.4234,0.15007 0.826332,-4.34812 3.979937,1.93626 2.523431,-3.63611 2.84831,3.38765 3.78421,-2.29538 1.22417,4.25328 4.39067,-0.55776 -0.61163,4.38348 4.23793,1.27631 -2.34167,3.75574 3.35242,2.88969 -3.66682,2.4786 1.88725,4.00341 z"
       transform="matrix(1.0585675,0,0,1.0592489,-42.791888,1101.9286)"
       inkscape:transform-center-x="1.337219"
       inkscape:transform-center-y="-0.30947264" />
    <rect
       ry="1"
       rx="1"
       y="981.36218"
       x="62"
       height="4.9999971"
       width="6"
       id="rect13450"
       style="color:#000000;fill:#ffffff;fill-opacity:1;fill-rule:nonzero;stroke:none;stroke-width:2;marker:none;visibility:visible;display:inline;overflow:visible;enable-background:accumulate" />
    <rect
       ry="1"
       rx="1"
       y="968.36218"
       x="62"
       height="10"
       width="6"
       id="rect13452"
       style="color:#000000;fill:#ffffff;fill-opacity:1;fill-rule:nonzero;stroke:none;stroke-width:2;marker:none;visibility:visible;display:inline;overflow:visible;enable-background:accumulate" />
  </g>
</svg>
